<svg xmlns="http://www.w3.org/2000/svg">
  <!-- inbox -->
  <symbol id="inbox" viewBox="0 0 24 24">
    <path d="M22 12h-6l-2 3H10l-2-3H2"/>
    <path d="M5.45 5.11L2 12v6a2 2 0 002 2h16a2 2 0 002-2v-6l-3.45-6.89A2 2 0 0016.76 4H7.24a2 2 0 00-1.79 1.11z"/>
  </symbol>
  <!-- calendar -->
  <symbol id="calendar" viewBox="0 0 24 24">
    <rect x="3" y="4" width="18" height="18" rx="2" ry="2"/>
    <line x1="16" y1="2" x2="16" y2="6"/>
    <line x1="8" y1="2" x2="8" y2="6"/>
    <line x1="3" y1="10" x2="21" y2="10"/>
  </symbol>
  <!-- clock -->
  <symbol id="clock" viewBox="0 0 24 24">
    <circle cx="12" cy="12" r="10"/>
    <polyline points="12 6 12 12 16 14"/>
  </symbol>
  <!-- plus -->
  <symbol id="plus" viewBox="0 0 24 24">
    <line x1="12" y1="5" x2="12" y2="19"/>
    <line x1="5" y1="12" x2="19" y2="12"/>
  </symbol>
  <!-- trash -->
  <symbol id="trash" viewBox="0 0 24 24">
    <polyline points="3 6 5 6 21 6"/>
    <path d="M19 6l-1 14a2 2 0 01-2 2H8a2 2 0 01-2-2L5 6"/>
    <path d="M10 11v6"/>
    <path d="M14 11v6"/>
  </symbol>
  <!-- chevron-down -->
  <symbol id="chevron-down" viewBox="0 0 24 24">
    <polyline points="6 9 12 15 18 9"/>
  </symbol>
  <!-- chevron-right -->
  <symbol id="chevron-right" viewBox="0 0 24 24">
    <polyline points="9 18 15 12 9 6"/>
  </symbol>
  <!-- chevron-left -->
  <symbol id="chevron-left" viewBox="0 0 24 24">
    <polyline points="15 18 9 12 15 6"/>
  </symbol>
  <!-- settings -->
  <symbol id="settings" viewBox="0 0 24 24">
    <circle cx="12" cy="12" r="3"/>
    <path d="M19.4 15a1.65 1.65 0 00.33 1.82l.06.06a2 2 0 010 2.83 2 2 0 01-2.83 0l-.06-.06a1.65 1.65 0 00-1.82-.33 1.65 1.65 0 00-1 1.51V21a2 2 0 01-4 0v-.09A1.65 1.65 0 009 19.4a1.65 1.65 0 00-1.82.33l-.06.06a2 2 0 01-2.83-2.83l.06-.06A1.65 1.65 0 004.68 15a1.65 1.65 0 00-1.51-1H3a2 2 0 010-4h.09A1.65 1.65 0 004.6 9a1.65 1.65 0 00-.33-1.82l-.06-.06a2 2 0 012.83-2.83l.06.06A1.65 1.65 0 009 4.68a1.65 1.65 0 001-1.51V3a2 2 0 014 0v.09a1.65 1.65 0 001 1.51 1.65 1.65 0 001.82-.33l.06-.06a2 2 0 012.83 2.83l-.06.06A1.65 1.65 0 0019.4 9a1.65 1.65 0 001.51 1H21a2 2 0 010 4h-.09a1.65 1.65 0 00-1.51 1z"/>
  </symbol>
  <!-- search -->
  <symbol id="search" viewBox="0 0 24 24">
    <circle cx="11" cy="11" r="8"/>
    <line x1="21" y1="21" x2="16.65" y2="16.65"/>
  </symbol>
  <!-- archive -->
  <symbol id="archive" viewBox="0 0 24 24">
    <polyline points="21 8 21 21 3 21 3 8"/>
    <rect x="1" y="3" width="22" height="5"/>
    <line x1="10" y1="12" x2="14" y2="12"/>
  </symbol>
  <!-- flag -->
  <symbol id="flag" viewBox="0 0 24 24">
    <path d="M4 15s1-1 4-1 5 2 8 2 4-1 4-1V3s-1 1-4 1-5-2-8-2-4 1-4 1z"/>
    <line x1="4" y1="22" x2="4" y2="15"/>
  </symbol>
  <!-- tag -->
  <symbol id="tag" viewBox="0 0 24 24">
    <path d="M20.59 13.41l-7.17 7.17a2 2 0 01-2.83 0L2 12V2h10l8.59 8.59a2 2 0 010 2.82z"/>
    <line x1="7" y1="7" x2="7.01" y2="7"/>
  </symbol>
  <!-- more-horizontal -->
  <symbol id="more-horizontal" viewBox="0 0 24 24">
    <circle cx="12" cy="12" r="1"/>
    <circle cx="19" cy="12" r="1"/>
    <circle cx="5" cy="12" r="1"/>
  </symbol>
  <!-- x -->
  <symbol id="x" viewBox="0 0 24 24">
    <line x1="18" y1="6" x2="6" y2="18"/>
    <line x1="6" y1="6" x2="18" y2="18"/>
  </symbol>
  <!-- check -->
  <symbol id="check" viewBox="0 0 24 24">
    <polyline points="20 6 9 17 4 12"/>
  </symbol>
  <!-- check-circle -->
  <symbol id="check-circle" viewBox="0 0 24 24">
    <path d="M22 11.08V12a10 10 0 11-5.93-9.14"/>
    <polyline points="22 4 12 14.01 9 11.01"/>
  </symbol>
  <!-- circle -->
  <symbol id="circle" viewBox="0 0 24 24">
    <circle cx="12" cy="12" r="10"/>
  </symbol>
  <!-- refresh -->
  <symbol id="refresh" viewBox="0 0 24 24">
    <polyline points="23 4 23 10 17 10"/>
    <path d="M20.49 15a9 9 0 11-2.12-9.36L23 10"/>
  </symbol>
  <!-- sun -->
  <symbol id="sun" viewBox="0 0 24 24">
    <circle cx="12" cy="12" r="5"/>
    <line x1="12" y1="1" x2="12" y2="3"/>
    <line x1="12" y1="21" x2="12" y2="23"/>
    <line x1="4.22" y1="4.22" x2="5.64" y2="5.64"/>
    <line x1="18.36" y1="18.36" x2="19.78" y2="19.78"/>
    <line x1="1" y1="12" x2="3" y2="12"/>
    <line x1="21" y1="12" x2="23" y2="12"/>
    <line x1="4.22" y1="19.78" x2="5.64" y2="18.36"/>
    <line x1="18.36" y1="5.64" x2="19.78" y2="4.22"/>
  </symbol>
  <!-- moon -->
  <symbol id="moon" viewBox="0 0 24 24">
    <path d="M21 12.79A9 9 0 1111.21 3 7 7 0 0021 12.79z"/>
  </symbol>
  <!-- filter -->
  <symbol id="filter" viewBox="0 0 24 24">
    <polygon points="22 3 2 3 10 12.46 10 19 14 21 14 12.46 22 3"/>
  </symbol>
  <!-- bar-chart -->
  <symbol id="bar-chart" viewBox="0 0 24 24">
    <line x1="12" y1="20" x2="12" y2="10"/>
    <line x1="18" y1="20" x2="18" y2="4"/>
    <line x1="6" y1="20" x2="6" y2="16"/>
  </symbol>
  <!-- layout -->
  <symbol id="layout" viewBox="0 0 24 24">
    <rect x="3" y="3" width="18" height="18" rx="2" ry="2"/>
    <line x1="3" y1="9" x2="21" y2="9"/>
    <line x1="9" y1="21" x2="9" y2="9"/>
  </symbol>
  <!-- list -->
  <symbol id="list" viewBox="0 0 24 24">
    <line x1="8" y1="6" x2="21" y2="6"/>
    <line x1="8" y1="12" x2="21" y2="12"/>
    <line x1="8" y1="18" x2="21" y2="18"/>
    <line x1="3" y1="6" x2="3.01" y2="6"/>
    <line x1="3" y1="12" x2="3.01" y2="12"/>
    <line x1="3" y1="18" x2="3.01" y2="18"/>
  </symbol>
  <!-- external-link -->
  <symbol id="external-link" viewBox="0 0 24 24">
    <path d="M18 13v6a2 2 0 01-2 2H5a2 2 0 01-2-2V8a2 2 0 012-2h6"/>
    <polyline points="15 3 21 3 21 9"/>
    <line x1="10" y1="14" x2="21" y2="3"/>
  </symbol>
  <!-- info -->
  <symbol id="info" viewBox="0 0 24 24">
    <circle cx="12" cy="12" r="10"/>
    <line x1="12" y1="16" x2="12" y2="12"/>
    <line x1="12" y1="8" x2="12.01" y2="8"/>
  </symbol>
  <!-- alert -->
  <symbol id="alert" viewBox="0 0 24 24">
    <path d="M10.29 3.86L1.82 18a2 2 0 001.71 3h16.94a2 2 0 001.71-3L13.71 3.86a2 2 0 00-3.42 0z"/>
    <line x1="12" y1="9" x2="12" y2="13"/>
    <line x1="12" y1="17" x2="12.01" y2="17"/>
  </symbol>
  <!-- grip-vertical -->
  <symbol id="grip-vertical" viewBox="0 0 24 24">
    <circle cx="9" cy="6" r="1.5"/>
    <circle cx="15" cy="6" r="1.5"/>
    <circle cx="9" cy="12" r="1.5"/>
    <circle cx="15" cy="12" r="1.5"/>
    <circle cx="9" cy="18" r="1.5"/>
    <circle cx="15" cy="18" r="1.5"/>
  </symbol>
  <!-- keyboard -->
  <symbol id="keyboard" viewBox="0 0 24 24">
    <rect x="2" y="4" width="20" height="16" rx="2" ry="2"/>
    <path d="M6 8h.01M10 8h.01M14 8h.01M18 8h.01M8 12h.01M12 12h.01M16 12h.01M6 12h.01M10 16h8"/>
  </symbol>
  <!-- command -->
  <symbol id="command" viewBox="0 0 24 24">
    <path d="M18 3a3 3 0 00-3 3v12a3 3 0 003 3 3 3 0 003-3 3 3 0 00-3-3H6a3 3 0 00-3 3 3 3 0 003 3 3 3 0 003-3V6a3 3 0 00-3-3 3 3 0 00-3 3 3 3 0 003 3h12a3 3 0 003-3 3 3 0 00-3-3z"/>
  </symbol>
  <!-- sparkles -->
  <symbol id="sparkles" viewBox="0 0 24 24">
    <path d="M12 3l1.5 5.5L19 10l-5.5 1.5L12 17l-1.5-5.5L5 10l5.5-1.5z"/>
    <path d="M18 14l.5 2L20.5 16.5 18 17l-.5 2L17 16.5 14.5 16l2.5-.5z"/>
  </symbol>
</svg>